<svg width="448" height="88" viewBox="0 0 448 88" fill="none" xmlns="http://www.w3.org/2000/svg">
  <g transform="translate(2 6)">
    <path d="M9 67V7h24c16 0 27 8 27 21 0 9-5 15-13 18l18 21H47L31 49H22v18H9z" fill="#E14040"/>
    <path d="M22 37h10c9 0 15-4 15-11 0-8-6-11-15-11H22v22z" fill="#F3F6F9"/>
    <path d="M13 40c12-9 23-14 34-15 6-1 10 0 13 2-4 1-8 3-11 5-8 5-15 12-22 21l-14-13z" fill="#F3F6F9"/>
    <circle cx="70" cy="56" r="6" fill="#E14040"/>
  </g>

  <text
    x="96"
    y="58"
    fill="#B64646"
    font-family="Inter, Arial, sans-serif"
    font-size="64"
    font-weight="600"
    letter-spacing="0.2"
  >ResolvePath</text>
</svg>
