<svg width="800" height="200" viewBox="0 0 800 200" fill="none" xmlns="http://www.w3.org/2000/svg">
  <rect width="800" height="200" fill="white"/>

  <!-- Icon (matched to provided crop style) -->
  <g transform="translate(42,22)">
    <path d="M12 150V10h62c43 0 72 22 72 56 0 24-14 42-34 50l47 54h-45l-40-45H45v45H12z" fill="#E14040"/>
    <path d="M45 93h27c24 0 40-11 40-30 0-20-16-30-40-30H45v60z" fill="#F3F6F9"/>
    <path d="M18 101c23-18 44-28 64-31 10-2 19-1 25 4-9 2-15 5-21 9-15 10-29 23-42 42L18 101z" fill="#F3F6F9"/>
    <circle cx="163" cy="121" r="12" fill="#E14040"/>
  </g>

  <!-- Wordmark -->
  <text
    x="245"
    y="122"
    fill="#B64646"
    font-family="Inter, Arial, sans-serif"
    font-size="92"
    font-weight="600"
    letter-spacing="0"
  >ResolvePath</text>
</svg>
