<svg width="224" height="48" viewBox="0 0 224 48" fill="none" xmlns="http://www.w3.org/2000/svg">
  <rect x="0.5" y="0.5" width="47" height="47" rx="15.5" fill="url(#paint0_linear_120_2)"/>
  <path d="M13.7148 34.048L18.3708 22.832H24.1948C27.4348 22.832 29.0188 21.544 29.0188 19.128C29.0188 16.68 27.4028 15.424 24.1948 15.424H16.6588V34.048H13.7148ZM31.2108 34.048L25.9948 25.744C29.1628 25.24 31.6748 22.864 31.6748 19.128C31.6748 14.824 28.4348 12.704 24.0508 12.704H13.7148V11.552H24.2428C29.3068 11.552 33.0028 14.224 33.0028 19.112C33.0028 23.016 30.7788 25.888 27.7308 26.864L34.6508 34.048H31.2108Z" fill="white"/>
  <circle cx="37.5" cy="33.5" r="3.5" fill="white"/>
  <path d="M66.456 34V12.928H75.96C80.376 12.928 83.488 15.28 83.488 19.472C83.488 22.84 81.424 24.872 78.6 25.608L83.968 34H80.76L75.744 26.056H69.312V34H66.456ZM69.312 23.496H75.72C78.528 23.496 80.568 22.08 80.568 19.536C80.568 16.96 78.528 15.488 75.72 15.488H69.312V23.496ZM92.6716 34.36C88.0476 34.36 84.7196 31.032 84.7196 26.504C84.7196 21.976 88.0476 18.648 92.6716 18.648C97.2956 18.648 100.624 21.976 100.624 26.504C100.624 31.032 97.2956 34.36 92.6716 34.36ZM92.6716 31.88C95.6396 31.88 97.7996 29.72 97.7996 26.504C97.7996 23.288 95.6396 21.128 92.6716 21.128C89.7036 21.128 87.5436 23.288 87.5436 26.504C87.5436 29.72 89.7036 31.88 92.6716 31.88ZM104.62 34V18.968H107.22V21.392C108.124 19.816 109.94 18.648 112.388 18.648C116.26 18.648 119.044 21.736 119.044 26.504C119.044 31.272 116.26 34.36 112.388 34.36C109.94 34.36 108.124 33.192 107.22 31.616V39.608H104.62V34ZM111.764 31.976C114.604 31.976 116.444 29.656 116.444 26.504C116.444 23.352 114.604 21.032 111.764 21.032C108.924 21.032 107.124 23.352 107.124 26.504C107.124 29.656 108.924 31.976 111.764 31.976ZM128.822 34.36C124.198 34.36 120.87 31.032 120.87 26.504C120.87 21.976 124.198 18.648 128.822 18.648C133.446 18.648 136.774 21.976 136.774 26.504C136.774 31.032 133.446 34.36 128.822 34.36ZM128.822 31.88C131.79 31.88 133.95 29.72 133.95 26.504C133.95 23.288 131.79 21.128 128.822 21.128C125.854 21.128 123.694 23.288 123.694 26.504C123.694 29.72 125.854 31.88 128.822 31.88ZM140.611 34V18.968H143.211V21.728C144.019 19.936 145.803 18.648 148.491 18.648H148.939V21.32H148.395C145.395 21.32 143.211 23.16 143.211 26.84V34H140.611ZM151.352 34V12.192H153.952V34H151.352ZM164.274 34.36C159.554 34.36 156.306 31.128 156.306 26.504C156.306 21.976 159.554 18.648 164.274 18.648C167.146 18.648 169.45 19.8 170.922 21.8L168.954 23.496C167.81 21.992 166.306 21.128 164.338 21.128C161.306 21.128 159.13 23.32 159.13 26.504C159.13 29.688 161.306 31.88 164.338 31.88C166.306 31.88 167.81 31.016 168.954 29.512L170.922 31.208C169.45 33.208 167.146 34.36 164.274 34.36ZM180.171 34.36C175.739 34.36 172.539 31.16 172.539 26.504C172.539 21.976 175.595 18.648 179.995 18.648C184.171 18.648 187.131 21.624 187.131 26.28V27.088H175.299C175.459 30.024 177.427 31.976 180.219 31.976C182.187 31.976 183.659 31.208 184.995 29.624L186.739 31.224C185.043 33.224 182.907 34.36 180.171 34.36ZM175.363 24.968H184.499C184.275 22.488 182.659 20.968 179.995 20.968C177.459 20.968 175.731 22.552 175.363 24.968ZM195.652 34.36C192.94 34.36 190.556 33.472 188.62 31.64L190.012 29.672C191.756 31.24 193.58 32.008 195.748 32.008C197.844 32.008 199.236 31.176 199.236 29.864C199.236 28.68 198.428 28.136 195.412 27.504C191.724 26.712 189.316 25.84 189.316 22.968C189.316 20.32 191.684 18.648 195.3 18.648C197.588 18.648 199.748 19.336 201.524 20.68L200.244 22.776C198.628 21.656 196.916 21.096 195.252 21.096C193.332 21.096 192.028 21.864 192.028 23.032C192.028 24.264 192.98 24.744 196.044 25.408C199.7 26.216 201.948 27.216 201.948 29.896C201.948 32.656 199.484 34.36 195.652 34.36Z" fill="url(#paint1_linear_120_2)"/>
  <defs>
    <linearGradient id="paint0_linear_120_2" x1="0" y1="0" x2="48" y2="48" gradientUnits="userSpaceOnUse">
      <stop stop-color="#E14040"/>
      <stop offset="1" stop-color="#921E2B"/>
    </linearGradient>
    <linearGradient id="paint1_linear_120_2" x1="66" y1="8" x2="204" y2="40" gradientUnits="userSpaceOnUse">
      <stop stop-color="#E14040"/>
      <stop offset="1" stop-color="#921E2B"/>
    </linearGradient>
  </defs>
</svg>
